<svg xmlns="http://www.w3.org/2000/svg" width="700" height="700" viewBox="0 0 700 700" version="1.1"><path d="M 324.152 96.017 C 320.660 96.503, 309.410 97.616, 299.152 98.491 C 273.437 100.684, 270.053 101.371, 249 108.671 C 238.825 112.199, 222.737 117.309, 213.248 120.027 C 194.589 125.371, 189.024 127.778, 180.047 134.386 C 176.708 136.844, 171.722 139.382, 168.361 140.333 C 159.827 142.749, 157.561 144.655, 149.563 156.145 C 142.038 166.955, 143.071 166.043, 120.822 181.500 C 115.535 185.172, 113.025 187.695, 111.367 191 C 106.469 200.766, 104.499 203.043, 95.339 209.536 C 90.230 213.158, 85.157 217.256, 84.065 218.644 C 82.974 220.031, 80.670 224.842, 78.945 229.333 C 77.220 233.825, 73.634 242.450, 70.976 248.500 C 68.317 254.550, 65.822 261.750, 65.431 264.500 C 65.039 267.250, 63.692 271.757, 62.437 274.516 C 61.182 277.274, 59.872 280.874, 59.525 282.516 C 59.178 284.157, 58.026 288.425, 56.966 292 C 55.905 295.575, 54.814 299.663, 54.541 301.084 C 54.269 302.505, 51.573 307.382, 48.551 311.923 C 45.529 316.464, 42.843 321.601, 42.581 323.339 C 42.320 325.078, 41.861 338.875, 41.561 354 C 41.262 369.125, 40.547 386.675, 39.972 393 C 39.398 399.325, 38.832 412.600, 38.715 422.500 C 38.477 442.687, 38.141 441.398, 47.392 455.751 C 56.122 469.297, 57.990 475.183, 61.908 501.500 C 63.185 510.077, 69.374 527.400, 74.322 536.247 C 78.517 543.749, 82.146 548.493, 94.299 562.361 C 99.051 567.784, 105.008 575.906, 107.536 580.409 C 112.150 588.630, 113.653 590.493, 137.376 617.417 C 150.968 632.842, 160.563 641.007, 168 643.477 C 170.475 644.299, 176.006 645.455, 180.291 646.045 C 184.577 646.635, 189.900 647.759, 192.122 648.543 C 196.169 649.971, 213.376 659.500, 226.500 667.582 C 236.708 673.868, 254.102 681.049, 262.128 682.292 C 267.285 683.090, 271.240 683.043, 277.765 682.105 C 296.068 679.475, 305.203 678.922, 312.427 680.008 C 328.930 682.488, 329.569 682.446, 343 678.001 C 351.635 675.143, 360.448 673.125, 371.500 671.475 C 380.300 670.161, 391.100 668.005, 395.500 666.683 C 407.241 663.155, 411.708 662.705, 417.508 664.464 C 420.254 665.297, 424.300 665.994, 426.500 666.014 C 428.700 666.033, 432.390 666.485, 434.701 667.018 C 439.671 668.166, 442.340 667.346, 449.500 662.475 C 452.250 660.604, 458.550 657.662, 463.500 655.937 C 472.840 652.682, 480.929 648.341, 489.500 641.984 C 492.250 639.945, 497.280 636.819, 500.678 635.037 C 504.076 633.256, 509.234 629.769, 512.140 627.288 C 515.045 624.808, 519.915 621.378, 522.961 619.666 C 529.626 615.922, 535.043 610.632, 545.153 598 C 549.335 592.775, 554.657 586.700, 556.980 584.500 C 559.303 582.300, 565.611 574.650, 570.997 567.500 C 576.383 560.350, 582.863 552.790, 585.395 550.700 C 590.673 546.345, 592.175 543.782, 595.602 533.284 C 598.266 525.124, 602.642 517.322, 612.030 504 C 619.603 493.254, 622.310 484.819, 624.954 463.736 C 626.381 452.362, 627.661 446.236, 629.552 441.736 C 636.369 425.515, 637.168 419.949, 634.351 408.312 C 633.195 403.539, 632.746 397.608, 632.850 388.500 C 632.955 379.327, 632.381 371.820, 630.900 363 C 628.980 351.568, 628.907 349.560, 630.053 339.500 C 631.514 326.678, 631.471 325.141, 629.350 314.500 C 627.500 305.216, 627.280 304.721, 622.432 298.918 C 617.839 293.421, 617.546 292.635, 613.474 274.827 C 610.051 259.858, 607.846 254.207, 603.004 248 C 601.502 246.075, 596.166 236.345, 591.146 226.378 C 583.167 210.536, 581.042 207.188, 574.259 199.769 C 569.992 195.102, 564.528 188.929, 562.117 186.051 C 556.086 178.853, 550.914 175.357, 542.662 172.899 C 533.937 170.301, 532.165 169.150, 528.035 163.399 C 523.454 157.021, 519.778 155.008, 512.700 155.004 C 505.902 154.999, 502.930 153.642, 497.547 148.082 C 492.867 143.249, 488.599 142.609, 485.326 146.250 C 482.083 149.859, 477.109 159.331, 474.594 166.690 C 473.314 170.436, 470.196 177.831, 467.666 183.125 C 457.710 203.951, 458.861 208.579, 477.717 223.545 C 493.652 236.194, 497.582 240.443, 501.054 248.785 C 502.741 252.836, 505.714 259.050, 507.662 262.594 C 511.047 268.752, 511.217 269.536, 511.488 280.269 C 511.653 286.767, 512.448 293.818, 513.376 297 C 514.258 300.025, 515.436 306.937, 515.994 312.360 C 516.551 317.782, 517.779 324.757, 518.720 327.860 C 520.835 334.825, 521.048 360.731, 519.129 377.620 C 518.040 387.199, 518.071 389.235, 519.354 392.304 C 521.515 397.476, 527.183 400.770, 537.616 402.917 C 545.470 404.533, 562.769 409.194, 577.500 413.663 C 587.164 416.594, 592.956 423.653, 592.956 432.500 C 592.956 440.871, 587.819 447.502, 575.650 454.838 C 565.840 460.752, 561.642 460.260, 549.343 451.757 C 545.957 449.416, 541.232 446.268, 538.843 444.763 C 536.454 443.257, 531.691 440.017, 528.258 437.562 C 516.232 428.963, 511.974 429.517, 502.500 440.915 C 499.200 444.885, 493.125 450.897, 489 454.274 C 484.875 457.650, 479.250 462.407, 476.500 464.844 C 473.750 467.281, 469.925 470.264, 468 471.472 C 461.401 475.615, 440.752 482.802, 432.006 483.999 C 427.375 484.633, 420.867 486.268, 417.543 487.632 C 408.688 491.265, 403.845 491.547, 391.389 489.153 C 385.400 488.002, 372.175 486.590, 362 486.014 C 341.055 484.830, 338.977 484.597, 326.500 482.033 C 321.550 481.017, 311.650 479.189, 304.500 477.973 C 297.350 476.756, 288.766 474.921, 285.424 473.894 C 277.240 471.380, 264.239 463.047, 250.692 451.633 C 233.868 437.458, 226.721 429.334, 220.856 417.715 C 214.881 405.879, 211.576 374.615, 215.353 365.662 C 216.243 363.551, 218.381 360.044, 220.104 357.868 C 221.827 355.693, 224.093 351.163, 225.139 347.802 C 226.185 344.441, 228.801 339.055, 230.953 335.832 C 233.105 332.609, 235.607 327.391, 236.513 324.236 C 237.419 321.081, 239.677 315.117, 241.531 310.983 C 245.311 302.554, 245.713 300.494, 246.903 283.447 C 247.449 275.635, 248.328 270.265, 249.402 268.189 C 251.337 264.448, 268.490 250.028, 280.881 241.725 C 286.418 238.016, 292.003 235.213, 296.500 233.887 C 311.370 229.502, 313.468 228.611, 317.421 225.004 C 319.665 222.957, 323.525 220.044, 326 218.530 C 328.475 217.015, 333.010 213.330, 336.077 210.340 C 341.547 205.009, 341.827 204.876, 350.577 203.456 C 362.384 201.540, 374.600 201.588, 380.124 203.572 C 386.658 205.919, 400.941 208.954, 405.572 208.978 C 412.270 209.014, 418.455 206.315, 423.017 201.366 C 428.396 195.530, 430 191.481, 430 183.734 C 430 177.607, 430.211 177.086, 436.563 167.519 C 444.866 155.014, 445.921 152.420, 446.944 142 C 447.403 137.325, 448.503 131.827, 449.389 129.782 C 452.768 121.984, 450.658 119.343, 439.856 117.846 C 435.822 117.287, 428.654 115.319, 423.927 113.472 C 418.057 111.178, 412.825 109.909, 407.417 109.468 C 403.063 109.112, 394.775 107.541, 389 105.977 C 354.382 96.598, 350.510 95.757, 340.500 95.445 C 335 95.274, 327.643 95.531, 324.152 96.017 M 264.999 137.250 C 258.326 141.805, 256.223 150.537, 259.881 158.500 C 262.409 164.003, 271.288 172.563, 276.554 174.574 C 287.031 178.575, 298.002 170.838, 299.562 158.348 C 300.856 147.993, 297.405 142.447, 286.500 137.355 C 279.569 134.118, 269.659 134.069, 264.999 137.250 M 210.655 172.426 C 205.941 174.147, 202.603 177.124, 198.859 182.946 C 191.976 193.648, 197.898 201.330, 213.052 201.356 C 221.921 201.371, 227.933 198.711, 231.711 193.102 C 235.389 187.642, 234.788 184.174, 229.250 178.906 C 226.637 176.420, 223.825 173.890, 223 173.283 C 220.382 171.357, 214.671 170.960, 210.655 172.426 M 377 232.474 C 353.496 238.790, 348.536 240.001, 346.122 240.017 C 341.693 240.045, 318.936 246.658, 316.138 248.730 C 313.504 250.681, 311.019 254.006, 307.790 259.901 C 306.841 261.634, 303.271 264.783, 299.765 266.982 C 294.640 270.195, 292.717 272.195, 289.558 277.594 C 285.028 285.338, 268.997 302.885, 261.937 307.827 C 258.767 310.046, 256.291 312.834, 254.856 315.798 C 252.686 320.279, 252.677 320.468, 254.333 326.928 C 256.871 336.834, 256.640 338.110, 251.459 342.825 L 246.918 346.958 247.114 355.229 C 247.222 359.778, 246.977 366.425, 246.569 370 L 245.827 376.500 253.413 387.868 C 257.586 394.121, 261 399.617, 261 400.081 C 261 400.545, 263.587 402.749, 266.750 404.978 C 279.351 413.859, 286.174 420.636, 293.956 432 C 295.274 433.925, 296.520 435.710, 296.725 435.966 C 296.930 436.222, 300.215 436.717, 304.025 437.066 C 310.024 437.616, 311.859 438.304, 317.726 442.202 C 329.226 449.843, 337.136 453.772, 346.423 456.456 C 361.324 460.763, 368.090 461.453, 377.950 459.670 C 382.653 458.819, 390.550 457.886, 395.500 457.596 C 402.607 457.179, 406.909 456.209, 415.954 452.981 C 428.563 448.482, 431.957 446.325, 449.094 431.910 C 466.453 417.311, 468.757 413.908, 465.669 407.432 C 463.595 403.083, 459.538 401.079, 443.486 396.477 C 436.344 394.429, 428.025 391.656, 425 390.316 C 421.975 388.975, 416.350 387.006, 412.500 385.939 C 408.650 384.873, 404.375 383.088, 403 381.973 C 399.117 378.823, 395.226 377.365, 385.725 375.498 C 377.036 373.792, 376.902 373.796, 371.910 375.943 C 365.524 378.691, 361.947 377.714, 355.518 371.466 C 351.799 367.851, 351 366.434, 351 363.449 C 351 359.131, 356.734 345.514, 361.515 338.480 C 363.391 335.720, 365.637 331.445, 366.506 328.980 C 367.375 326.516, 369.555 322.925, 371.351 321 C 375.099 316.984, 382.243 307.484, 383.813 304.432 C 384.397 303.294, 387.605 294.404, 390.940 284.675 C 394.275 274.947, 400.153 260.497, 404.002 252.565 C 407.851 244.634, 411 237.211, 411 236.072 C 411 234.932, 410.100 233.100, 409 232 C 406.046 229.046, 388.808 229.301, 377 232.474 M 431.094 250.735 C 422.314 259.912, 416.677 271.737, 414.501 285.541 C 413.637 291.018, 411.609 299.803, 409.994 305.063 C 408.379 310.323, 406.343 317.710, 405.468 321.480 C 403.496 329.986, 402.125 332.666, 396.525 338.971 C 391.515 344.613, 389.433 350.163, 390.397 355.305 C 390.903 357.999, 392.748 360.319, 398.426 365.401 C 404.972 371.260, 406.259 372, 409.897 372 C 413.173 372, 414.769 372.700, 417.857 375.490 C 420.915 378.253, 423.260 379.293, 429.110 380.482 C 433.175 381.307, 438.975 382.691, 442 383.556 C 445.025 384.420, 451.839 385.287, 457.141 385.482 C 463.357 385.710, 467.869 386.398, 469.842 387.418 C 471.524 388.288, 474.768 389, 477.049 389 C 484.073 389, 487.296 386.715, 492.301 378.186 C 498.009 368.459, 501.004 358.786, 500.985 350.145 C 500.977 346.490, 501.508 336.292, 502.165 327.483 C 503.360 311.466, 503.360 311.466, 500.746 305.757 C 498.974 301.885, 495.228 297.045, 489.112 290.723 C 481.631 282.990, 479.412 279.921, 476.110 272.738 C 471.492 262.697, 464.949 252.668, 461.570 250.454 C 458.387 248.368, 444.215 244.034, 440.519 244.015 C 438.134 244.003, 436.248 245.348, 431.094 250.735 M 128.875 354.265 C 126.521 356.060, 123.758 358.963, 122.735 360.715 C 120.225 365.012, 111.181 400.198, 110.385 408.763 C 109.872 414.288, 110.248 417.658, 112.315 426.062 C 113.727 431.803, 115.179 438.749, 115.540 441.499 C 116.457 448.475, 119.120 455.004, 124.886 464.417 C 127.610 468.863, 130.943 475.441, 132.293 479.035 C 137.743 493.541, 140.998 498.297, 159.299 518.500 C 174.191 534.940, 182.441 542.001, 209.936 561.844 C 230.524 576.701, 233.781 578.772, 239.462 580.612 C 242.233 581.510, 250.588 584.828, 258.029 587.987 C 284.459 599.206, 302.112 602.627, 356.500 607.067 C 384.323 609.338, 387.761 609.231, 404.610 605.560 C 433.650 599.232, 442.186 596.776, 445.622 593.758 C 453.581 586.770, 451.850 577.566, 441.086 569.642 C 434.474 564.775, 428.662 563, 419.333 563 C 414.974 563, 411.815 563.878, 404.792 567.040 C 394.346 571.744, 385.844 573.228, 358.897 575.053 C 330.564 576.972, 317.671 574.779, 299.415 564.939 C 293.543 561.774, 287.708 559.495, 282.915 558.496 C 271.319 556.078, 243.740 546.258, 230.165 539.714 C 215.773 532.776, 207.395 526.398, 193.437 511.753 C 181.339 499.059, 172.681 488.277, 169.425 481.852 C 165.361 473.833, 157.899 455.144, 154.911 445.500 C 153.377 440.550, 150.728 432.675, 149.025 428 C 146.227 420.320, 145.968 418.632, 146.334 410.500 C 146.642 403.681, 147.378 399.989, 149.372 395.264 C 152.366 388.172, 155.493 369.443, 154.536 364.339 C 153.812 360.480, 149.037 354.588, 144.901 352.449 C 139.917 349.872, 133.713 350.575, 128.875 354.265" stroke="none" fill="#f97cd4" fill-rule="evenodd"/><path d="M 472.135 102.095 C 461.343 114.773, 455.816 119, 450.029 119 C 447.826 119, 447.787 119.107, 449.345 120.829 C 451.419 123.120, 451.428 125.076, 449.389 129.782 C 448.503 131.827, 447.403 137.325, 446.944 142 C 445.921 152.420, 444.866 155.014, 436.563 167.519 C 430.211 177.086, 430 177.607, 430 183.734 C 430 191.481, 428.396 195.530, 423.017 201.366 C 418.455 206.315, 412.270 209.014, 405.572 208.978 C 400.941 208.954, 386.658 205.919, 380.124 203.572 C 374.600 201.588, 362.384 201.540, 350.577 203.456 C 341.827 204.876, 341.547 205.009, 336.077 210.340 C 333.010 213.330, 328.475 217.015, 326 218.530 C 323.525 220.044, 319.623 222.995, 317.330 225.088 C 314.328 227.828, 311.107 229.494, 305.830 231.036 C 291.165 235.321, 289.356 236.098, 280.881 241.751 C 268.571 249.963, 251.347 264.428, 249.402 268.189 C 248.328 270.265, 247.449 275.635, 246.903 283.447 C 245.713 300.494, 245.311 302.554, 241.531 310.983 C 239.677 315.117, 237.419 321.081, 236.513 324.236 C 235.607 327.391, 233.105 332.609, 230.953 335.832 C 228.801 339.055, 226.185 344.441, 225.139 347.802 C 224.093 351.163, 221.827 355.693, 220.104 357.868 C 218.381 360.044, 216.243 363.551, 215.353 365.662 C 211.576 374.615, 214.881 405.879, 220.856 417.715 C 226.721 429.334, 233.868 437.458, 250.692 451.633 C 264.239 463.047, 277.240 471.380, 285.424 473.894 C 288.766 474.921, 297.350 476.756, 304.500 477.973 C 311.650 479.189, 321.550 481.017, 326.500 482.033 C 338.977 484.597, 341.055 484.830, 362 486.014 C 372.175 486.590, 385.400 488.002, 391.389 489.153 C 403.845 491.547, 408.688 491.265, 417.543 487.632 C 420.867 486.268, 427.375 484.633, 432.006 483.999 C 440.752 482.802, 461.401 475.615, 468 471.472 C 469.925 470.264, 473.750 467.281, 476.500 464.844 C 479.250 462.407, 484.875 457.650, 489 454.274 C 493.125 450.897, 499.200 444.885, 502.500 440.915 C 511.974 429.517, 516.232 428.963, 528.258 437.562 C 531.691 440.017, 536.454 443.257, 538.843 444.763 C 541.232 446.268, 545.957 449.416, 549.343 451.757 C 561.642 460.260, 565.840 460.752, 575.650 454.838 C 587.819 447.502, 592.956 440.871, 592.956 432.500 C 592.956 423.653, 587.164 416.594, 577.500 413.663 C 562.769 409.194, 545.470 404.533, 537.616 402.917 C 527.183 400.770, 521.515 397.476, 519.354 392.304 C 518.071 389.235, 518.040 387.199, 519.129 377.620 C 521.048 360.731, 520.835 334.825, 518.720 327.860 C 517.779 324.757, 516.551 317.782, 515.994 312.360 C 515.436 306.937, 514.258 300.025, 513.376 297 C 512.448 293.818, 511.653 286.767, 511.488 280.269 C 511.217 269.536, 511.047 268.752, 507.662 262.594 C 505.714 259.050, 502.741 252.836, 501.054 248.785 C 497.582 240.443, 493.652 236.194, 477.717 223.545 C 458.861 208.579, 457.710 203.951, 467.666 183.125 C 470.196 177.831, 473.314 170.436, 474.594 166.690 C 477.109 159.331, 482.083 149.859, 485.326 146.250 C 486.565 144.872, 488.504 144, 490.329 144 C 493.296 144, 493.301 143.990, 491.405 141.898 C 489.799 140.126, 489.409 137.653, 488.923 126.148 C 488.436 114.635, 487.989 111.796, 486.060 108 C 481.204 98.439, 476.827 96.583, 472.135 102.095 M 264.999 137.250 C 258.326 141.805, 256.223 150.537, 259.881 158.500 C 262.409 164.003, 271.288 172.563, 276.554 174.574 C 287.031 178.575, 298.002 170.838, 299.562 158.348 C 300.856 147.993, 297.405 142.447, 286.500 137.355 C 279.569 134.118, 269.659 134.069, 264.999 137.250 M 210.655 172.426 C 205.941 174.147, 202.603 177.124, 198.859 182.946 C 191.976 193.648, 197.898 201.330, 213.052 201.356 C 221.921 201.371, 227.933 198.711, 231.711 193.102 C 235.389 187.642, 234.788 184.174, 229.250 178.906 C 226.637 176.420, 223.825 173.890, 223 173.283 C 220.382 171.357, 214.671 170.960, 210.655 172.426 M 377 232.474 C 353.496 238.790, 348.536 240.001, 346.122 240.017 C 341.693 240.045, 318.936 246.658, 316.138 248.730 C 313.504 250.681, 311.019 254.006, 307.790 259.901 C 306.841 261.634, 303.271 264.783, 299.765 266.982 C 294.640 270.195, 292.717 272.195, 289.558 277.594 C 285.028 285.338, 268.997 302.885, 261.937 307.827 C 258.767 310.046, 256.291 312.834, 254.856 315.798 C 252.686 320.279, 252.677 320.468, 254.333 326.928 C 256.871 336.834, 256.640 338.110, 251.459 342.825 L 246.918 346.958 247.114 355.229 C 247.222 359.778, 246.977 366.425, 246.569 370 L 245.827 376.500 253.413 387.868 C 257.586 394.121, 261 399.617, 261 400.081 C 261 400.545, 263.587 402.749, 266.750 404.978 C 279.351 413.859, 286.174 420.636, 293.956 432 C 295.274 433.925, 296.520 435.710, 296.725 435.966 C 296.930 436.222, 300.215 436.717, 304.025 437.066 C 310.024 437.616, 311.859 438.304, 317.726 442.202 C 329.226 449.843, 337.136 453.772, 346.423 456.456 C 361.324 460.763, 368.090 461.453, 377.950 459.670 C 382.653 458.819, 390.550 457.886, 395.500 457.596 C 402.607 457.179, 406.909 456.209, 415.954 452.981 C 428.563 448.482, 431.957 446.325, 449.094 431.910 C 466.453 417.311, 468.757 413.908, 465.669 407.432 C 463.595 403.083, 459.538 401.079, 443.486 396.477 C 436.344 394.429, 428.025 391.656, 425 390.316 C 421.975 388.975, 416.350 387.006, 412.500 385.939 C 408.650 384.873, 404.375 383.088, 403 381.973 C 399.117 378.823, 395.226 377.365, 385.725 375.498 C 377.036 373.792, 376.902 373.796, 371.910 375.943 C 365.524 378.691, 361.947 377.714, 355.518 371.466 C 351.799 367.851, 351 366.434, 351 363.449 C 351 359.131, 356.734 345.514, 361.515 338.480 C 363.391 335.720, 365.637 331.445, 366.506 328.980 C 367.375 326.516, 369.555 322.925, 371.351 321 C 375.099 316.984, 382.243 307.484, 383.813 304.432 C 384.397 303.294, 387.605 294.404, 390.940 284.675 C 394.275 274.947, 400.153 260.497, 404.002 252.565 C 407.851 244.634, 411 237.211, 411 236.072 C 411 234.932, 410.100 233.100, 409 232 C 406.046 229.046, 388.808 229.301, 377 232.474 M 431.094 250.735 C 422.314 259.912, 416.677 271.737, 414.501 285.541 C 413.637 291.018, 411.609 299.803, 409.994 305.063 C 408.379 310.323, 406.343 317.710, 405.468 321.480 C 403.496 329.986, 402.125 332.666, 396.525 338.971 C 391.515 344.613, 389.433 350.163, 390.397 355.305 C 390.903 357.999, 392.748 360.319, 398.426 365.401 C 404.972 371.260, 406.259 372, 409.897 372 C 413.173 372, 414.769 372.700, 417.857 375.490 C 420.915 378.253, 423.260 379.293, 429.110 380.482 C 433.175 381.307, 438.975 382.691, 442 383.556 C 445.025 384.420, 451.839 385.287, 457.141 385.482 C 463.357 385.710, 467.869 386.398, 469.842 387.418 C 471.524 388.288, 474.768 389, 477.049 389 C 484.073 389, 487.296 386.715, 492.301 378.186 C 498.009 368.459, 501.004 358.786, 500.985 350.145 C 500.977 346.490, 501.508 336.292, 502.165 327.483 C 503.360 311.466, 503.360 311.466, 500.746 305.757 C 498.974 301.885, 495.228 297.045, 489.112 290.723 C 481.631 282.990, 479.412 279.921, 476.110 272.738 C 471.492 262.697, 464.949 252.668, 461.570 250.454 C 458.387 248.368, 444.215 244.034, 440.519 244.015 C 438.134 244.003, 436.248 245.348, 431.094 250.735 M 128.875 354.265 C 126.521 356.060, 123.758 358.963, 122.735 360.715 C 120.225 365.012, 111.181 400.198, 110.385 408.763 C 109.872 414.288, 110.248 417.658, 112.315 426.062 C 113.727 431.803, 115.179 438.749, 115.540 441.499 C 116.457 448.475, 119.120 455.004, 124.886 464.417 C 127.610 468.863, 130.943 475.441, 132.293 479.035 C 137.743 493.541, 140.998 498.297, 159.299 518.500 C 174.191 534.940, 182.441 542.001, 209.936 561.844 C 230.524 576.701, 233.781 578.772, 239.462 580.612 C 242.233 581.510, 250.588 584.828, 258.029 587.987 C 284.459 599.206, 302.112 602.627, 356.500 607.067 C 384.323 609.338, 387.761 609.231, 404.610 605.560 C 433.650 599.232, 442.186 596.776, 445.622 593.758 C 453.581 586.770, 451.850 577.566, 441.086 569.642 C 434.474 564.775, 428.662 563, 419.333 563 C 414.974 563, 411.815 563.878, 404.792 567.040 C 394.346 571.744, 385.844 573.228, 358.897 575.053 C 330.564 576.972, 317.671 574.779, 299.415 564.939 C 293.543 561.774, 287.708 559.495, 282.915 558.496 C 271.319 556.078, 243.740 546.258, 230.165 539.714 C 215.773 532.776, 207.395 526.398, 193.437 511.753 C 181.339 499.059, 172.681 488.277, 169.425 481.852 C 165.361 473.833, 157.899 455.144, 154.911 445.500 C 153.377 440.550, 150.728 432.675, 149.025 428 C 146.227 420.320, 145.968 418.632, 146.334 410.500 C 146.642 403.681, 147.378 399.989, 149.372 395.264 C 152.366 388.172, 155.493 369.443, 154.536 364.339 C 153.812 360.480, 149.037 354.588, 144.901 352.449 C 139.917 349.872, 133.713 350.575, 128.875 354.265" stroke="none" fill="#fcfcfc" fill-rule="evenodd"/></svg>