<svg xmlns="http://www.w3.org/2000/svg" width="125" height="125" fill="none" stroke-width="3" stroke="#ff67cd" stroke-linejoin="round" xmlns:v="https://vecta.io/nano"><path d="M49.658 63.748l.074-.68.188-1.715.832-2.101.779-1.968.22-.378v-.001l.079-.137.205-.352.807-.706.676-.592 3.148-1.415 2.905-1.306 3.59-.324 2.086-.189 1.206.013 1.179.012 1.246.249.005.001.612.122.016.002.346.068 1.519.304 1.75 1.126 1.269.816.708.991"/><path d="M57.999 53.091l1.569-.705 2.949-.266.24-.02.008.001.37-.031.006.001.527-.046h.004l1.575-.142.967.01.001-.001.251.002.002-.001h.16l1.005.011 1.444.288.004-.001.214.041.006-.001.904.179 1.175.235 2.061 1.326.962.618.785 1.1.083.12v.004l.079.114v.003l.465.651.92 1.842.003.003.151.299.004.004.157.31.005.006.686 1.37.623 1.25.282 2.025.287 2.071-.166 1.697.001.006-.121 1.242-.14 1.425-1.567 2.212-.626.884-1.344 1.017-.086.062-.005.001-.146.108-.003.001-.948.716-1.34.725-1.126.608-1.064.435-.001.001-.253.105-.002.002-.208.086-1.272.52-1.614.291-1.426.257-2.329-.004-.004.001-.356.001-.006.002-.325.001-.009.002-1.674-.001-1.32-.003-2.539-.765-.961-.289-2.96-2.418-.983-.802-.78-1.169-.728-1.091-.394-1.112-.003-.003-.169-.474-.228-.644-.121-1.95-.009-.184.001-.006-.013-.236.001-.005-.097-1.58.182-1.664v-.003l.025-.245-.001-.004.018-.19.218-1.975.771-1.947.088-.217.003-.003.146-.364.002-.002.608-1.536.168-.289h-.001l.043-.075-.001-.002.025-.046-.001-.002.019-.036-.001-.003.098-.17.146-.251.928-.813.558-.488 4.488-2.017"/><path d="M49.473 65.433l.125 1.982m12.518 10.738l-2.661-.004-1.677-.506-.016-.004-.326-.097-1.478-.445-2.04-1.668-1.898-1.551-.889-1.328-.621-.928-.448-1.264-.342-.968-.147-2.36"/><path d="M50.511 71.621l.725 1.083m25.933-13.405l1.183 2.369.342 2.449.23 1.644-.179 1.821-.002.024-.038.405-.001.026-.024.259-.181 1.832-1.067 1.505-.209.291-.013.017-.906 1.277-1.566 1.186-.958.725-1.556.843"/><path d="M73.78 75.129l1.208-.916m3.934-8.453l-.262-1.875m-9.867-18.147l.625-4.165.541-1.341.487-1.208.718-1.18.168-.275h.001l.521-.858.681-.912.001-.001.179-.242.625-.835 3.741-3.97 3.157-3.351 1.944-1.721.002-.002.62-.551.003-.004.385-.342 2.224-1.969 1.398-.886 1.239-.785 1.115-.444 1.053-.419 1.869-.343.004-.002.207-.041.006-.003.178-.036 2.042-.374 1.996.185.008-.003 1.384.127.616.057 1.634.653.123.052.003.005 1.569.63 1.589 1.068h.006l.123.079 1.523 1.023 1.111 1.281.006.002.736.845.372.429.282.616.012.034-.002.004.029.071-.001.003.045.106-.001.003.046.108v.001l.052.121h0l-.062-.131h-.001l-.061-.129h0l-.049-.106-.001-.001-.034-.074-.001-.001-.017-.039v-.002l-.084-.183-.175-.382-1.147-1.321-1.074-1.237-1.715-1.152-1.521-1.022-1.492-.595-.004-.002-.147-.06-.005-.002-.875-.35-.809-.323-3.04-.28-.962-.089-2.154.395-.152.029-.005.002-1.988.364-1.207.481-.961.383-1.325.84-1.308.83-2.884 2.553-2.292 2.029-3.632 3.855-3.265 3.467-.843 1.128-.643.86-.616 1.014-.001.001-.138.226-.653 1.076-.452 1.125-.002.002-.068.167-.003.003-.048.115-.458 1.139-.621 4.164m.63-4.167l.638-1.587.387-.963.891-1.467"/><path d="M72.529 35.809l.379-.508.432-.578 3.823-4.059m4.959-4.931l1.387-1.228 1.907-1.687 1.553-.985 1.083-.686 1.238-.493.93-.37 2.116-.388 2.185-.4 1.886.174.006-.001.494.044 1.616.149 1.724.69 1.605.643 1.616 1.086 1.619 1.087 1.065 1.228.003.001.271.31.882 1.017.269.588.066.149v.002l-.076-.162-.004-.005-.059-.128-.202-.439m1.064 2.503l.068.176.379 1.016.219 1.399.165 1.06-.005 1.928-.004 1.566-.192 1.095.002.002-.023.144.003.003-.012.084-.193 1.099-1.194 2.599-.121.257-.005.006-1.082 2.355-2.073 3.074-.002.006-.205.308-1.921 2.849-2.754 2.625-2.579 2.458-.081.045-.028.015-.003-.001-.539.31h-.003l-.054.031h-.001l.039-.023h-.001l-.036.021v.001l-.074.044h.001l-.018.011.002.001-.244.142 1.028-.593 2.691-2.566 2.64-2.518 2.269-3.366 1.935-2.87.998-2.177.001-.003.145-.314.003-.004.121-.262 1.124-2.451.221-1.266.025-.148.001-.004.177-1.013h0 0l.005-1.875.005-1.618-.184-1.174m-.487-2.055l-.096-.261-.002-.01.09.237m.681 3.26l-.181-1.155-.002-.008-.064-.407"/><path d="M109.19 32.086l-.006 2.134m-2.822 9.002l.981-2.139.007-.017.406-.887m-1.392 3.042l-2.33 3.457m-7.205 7.859l-.321.185.023-.014.001-.001-.021.013m-3.412 1.898l-.003.001h0 .001m-.106-.055l.005.003-.492.107.576.008v.002l-.065.001-.001.002-.549-.009.472-.107.003.003.051-.01m10.736 1.41l-.048-.007.751.114 1.261.271h.002l.473.101.004-.001.285.06 1.395.3 2.154.857h.006l.228.089 2.264.9 1.233.884.005.001.101.069 1.359.974 1.616 2.131.008.006 1.329 1.752.627.826.579 1.989.024.097-.001.006.051.187-.001.004.067.242-.001.003.313 1.08.194 1.38.003.002.033.219.185 1.317-.067 1.954.002.004-.004.205-.069 2.017-.232.833.001.003-.023.096.002.004-.178.644-.132.472-.915 1.173-.434.557-1.93.986-.056.025-.006.001-1.154.588-1.082.279-.159.039-.003-.001-.882.228-5.27.608-3.622.418-1.503.031-1.49.032-2.315-.171h0l-.796-.057-.003.001-.511-.037-3.238-.239-.073-.021h.001l-.002-.003h0l-.001-.001h0l-.002-.001"/><path d="M105.676 58.349l.89.191 1.278.276 2.434.967 2.214.881 1.247.893.007.004.336.239 1.105.792 1.918 2.53 1.655 2.184.602 2.068.445 1.535.248 1.762.162 1.156-.075 2.194-.067 1.983-.233.832v.005l-.067.246m-1.616 2.689l-1.969 1.008-1.168.597-1.379.358-.741.192-6.579.761-2.311.267-2.217.047"/><path d="M104.011 84.959l5.021-.581 3.868-.448.952-.247.006-.002.355-.093.801-.208h0l.003-.001 1.407-.721.023-.013.297-.151 1.405-.721M94.065 84.49h0m.041.011l.046.012m-7.545-.397l-.002.002.017-.039.069-.152m.657 6.297h0l.015.043.627 2.901.002.004.109.496.702 3.251.015 1.668.012 1.305-.146 1.273v.002l-.027.259.001.004-.035.319.002.006-.02.192.002.007-.117 1.026-.076.662-.976 2.176-.282.628-2.234 2.139-.55.526-2.796 1.333-.094.04-.009.002-2.311 1.099-1.812.357-1.509.298-2.556-.042-2.555-.043-1.134-.232-.002.001-.135-.025-.004.002-.091-.015-1.173-.241-2.584-1.29-2.53-1.263-1.14-.973-.995-.85-.799-.947h-.002l-.123-.142-.003-.001-.058-.065-.005-.001-.52-.615-.341-.406-.918-2.038-.048-.113-.001-.009-.09-.204-.001-.007-.81-1.801-.791-3.157-.699-2.789-.003-.068h0l.002-.002h0l.001-.001v-.002"/><path d="M63.08 109.08l-1.312-1.116m-3.613-4.987l-.929-2.062-.883-3.523-.607-2.422-.001-.024h0l.002.023.749 2.988.74 2.956.746 1.654m-3.684-12.742v.001m-.144-.198l.052.062.012.015.008.014.015.019.008.013m-5.595 4.708h0l-.026.032-2.565 2.448-1.825 1.742-1.517 1.155-.002.003-.277.213-.003.004-.234.181-1.744 1.327-2.207.978-.005.004-.138.064-.007.006-1.642.728-.616.273-2.641.371-.183.023-.009-.001-2.619.366-2.831-.229-.008.002-.196-.013-2.778-.225-3.096-1.127-2.892-1.053-1.598-1.113-.007-.001-1.187-.827-.443-.309-.349-.45-.347-.452-.319-.789-.003-.002-.16-.39-.221-.548-.048-1.759v-.148l.002-.006-.002-.202.002-.005-.033-1.26.168-.957-.001-.002.023-.15-.002-.003.017-.11-.003-.004.133-.762.094-.532 1.509-2.646.356-.623 3.47-3.336.111-.103.012-.009.335-.319.01-.007 2.879-2.767 2.157-1.432 1.94-1.289.048-.024h.002m21.49 16.093l.045-.053h0l-.045.054-3.118 2.975-1.272 1.214-2.038 1.552-1.739 1.324-2.245.994-.01.005-.565.252-1.793.794-2.773.39-2.677.376-2.866-.232-2.942-.239-2.976-1.083-3.009-1.095-1.498-1.045-.004-.001-.395-.273-1.334-.931-.37-.478"/><path d="M13.969 96.842l-.052-1.928-.04-1.447.195-1.106v-.006l.052-.306m2.057-4.366l6.806-6.542m4.281-2.818l-.186.096h0 0l-2.06 1.37-2.033 1.351-2.602 2.502M30.91 70.943h0l-.044-.011-2.898-.967h-.002l-.583-.193-2.89-.965-3.188-1.533-2.125-1.023-1.488-.916h-.003l-.232-.141-1.377-.849-.494-.433h-.002l-.058-.048h-.004l-.04-.032h-.005l-.304-.266-.237-.209-.813-1.343-.028-.051v-.005l-.694-1.15-.337-1.114-.283-.938-.28-2.559-.219-1.995.075-1.369.06-1.119.276-1.201-.002-.003.035-.162.294-1.283 1.696-3.252 1.4-2.686 2.136-2.608.002-.006.228-.283 2.315-2.827 1.365-1.007.002-.005.214-.161.004-.007 1.341-.99.53-.392 1.711-.427.05-.009.005.001.11-.024h.004l1.005-.25 1.046-.036.221-.007.002.001.608-.021 1.168.047v-.001l.367.014 1.455.059.953.189h.001l.188.035.002-.001.18.034.003-.002.105.019.004-.002.733.144.497.099.942.49.045.026.003.004.895.467.82.683.819.682.057.072h0v.003-.001l.001.002"/><path d="M27.048 69.657l-.675-.225-1.877-.626-3.841-1.848-1.473-.708-1.908-1.175-1.188-.732-.539-.474-.004-.002-.147-.128-.443-.39-.82-1.353-.72-1.19-.364-1.195-.26-.855-.309-2.824-.19-1.729.082-1.516.053-.971.608-2.647m3.09-5.938l2.426-2.963m7.429-5.739l1.164-.291 1.181-.043-.329.013-.004.001"/><path d="M27.145 34.14l-1.407.353m4.597-.37l.613.025m4.686 1.071l.922.479m7.128-5.945h0v-.046l.077-.772v-.001l.036-.369-.001-.003.021-.224-.002-.004.015-.162.116-1.15.448-1.277.415-1.182.648-1.007v-.004l.037-.062.617-.959 1.934-1.766 1.793-1.636 1.182-.612 1.157-.599 1.297-.354 1.291-.353 2.366-.209 2.167-.191 1.849.192.004-.001.237.022.007-.002.409.04.008-.002 1.791.185.857.09 1.562.813.447.233 1.053 1.269.439.529.816 2.722.2.667.011.954-.002.019-.002.005-.001.08-.002.005v.042l-.002.004v.095l-.001.003.001.098v.002l-.002-.143m-25.154 3.609l-.047.46-.001.006.054-.536.125-1.242.458-1.304.405-1.154.661-1.027.643-1 1.876-1.712 1.848-1.688 1.296-.674 1.039-.54 1.544-.425 1.043-.287 2.642-.233m10.54 3.207l.611 2.035.404 1.35.007.591.001.072-.001.008-.001-.107m-.007-.559l-.476-1.587-.006-.021-.095-.319m.529 9.884v.105l-.033 2.187-.008.038v-.001l-.002.002h0l-.001.001h0v.001h0l.001.002h0l.007-.036.036-2.425m-.02 1.296l-.017 1.125M56.662 68.486l.192.285.013.025m15.874-2.872l-.001.138-.073.368-.012.054-.002.001-.065.334-.315.886-.25.704-.158.317v.001l-.021.045-.131.263-.106.144-.109.151-.177.192-.153.166-.286.231-.217.176-.137.091h0l-.032.023-.137.09-1.14.551-.84.405-.492.173-.471.167-.319.087-.269.074-.182.033h0l-.05.011v.001l-.033.007-.2.036-.972.011-.2.001-.002-.001-.86.01-.436-.025v.001l-.097-.005-.445-.026-1.255-.268-.794-.17-.305-.092-.264-.08-.286-.113v.001l-.07-.027-.001.001-.046-.017-.292-.116-.458-.279-.415-.253-.215-.175-.177-.145-.155-.164-.137-.145-.133-.172v.001l-.036-.045v.001l-.024-.028-.139-.181-.023-.046v.001l.001-.002.001.001.001-.001h-.001"/><path d="M58.152 69.342l-.008-.016m.63.749l.223.182.169.138.46.279.001.001m.413.251l-.572-.347-.302-.183-.392-.32m3.322 1.465l.362.077m1.34.216l-.154-.008m2.718.014l-.975.012.238-.003h.003m2.75-.595l-.452.159.132-.046.32-.114 1.126-.543.854-.413.152-.1-.06.04-.092.061m2.316-3.93l-.088.45-.393 1.106-.171.484-.204.408-.108.216-.143.199-.071.098-.224.244-.106.114-.255.207.063-.051.192-.156.186-.202.144-.156m2.109-3.4l-.002-.001"/><path d="M73.603 65.928h-.004"/><path d="M73.599 65.928h-.004"/><path d="M73.595 65.928h-.005"/><path d="M73.59 65.928h-.006"/><path d="M73.584 65.928l-.006-.001"/><path d="M73.578 65.927h-.008"/><path d="M73.57 65.927h-.008"/><path d="M73.562 65.927h-.009"/><path d="M73.553 65.927h-.01"/><path d="M73.543 65.927l-.011-.001m0 0h-.011"/><path d="M73.521 65.926h-.012"/><path d="M73.509 65.926h-.013"/><path d="M73.496 65.926h-.013"/><path d="M73.483 65.926l-.014-.001m0 0h-.014"/><path d="M73.455 65.925h-.016"/><path d="M73.439 65.925h-.015m0 0h-.016"/><path d="M73.408 65.925l-.017-.001m0 0h-.017m0 0h-.018"/><path d="M73.356 65.924h-.017"/><path d="M73.339 65.924h-.018"/><path d="M73.321 65.924l-.019-.001"/><path d="M73.302 65.923h-.019"/><path d="M73.283 65.923h-.019"/><path d="M73.264 65.923h-.019m0 0h-.019"/><path d="M73.226 65.923h-.019"/><path d="M73.207 65.923h-.02"/><path d="M73.187 65.923l-.019-.001"/><path d="M73.168 65.922h-.02M49.722 69.39h0l-.249-3.957.449-4.079 1.609-4.07.505-.867 1.483-1.298 6.052-2.72 5.676-.515 2.384.026 3.743.748 3.018 1.941"/><path d="M59.35 51.556l-6.302 2.83-1.683 1.476-.617 1.04-1.672 4.242-.474 4.268.266 4.153.865 2.447 1.644 2.452 4.174 3.399 3.776 1.146 6.226.016 3.204-.581 2.93-1.193 2.566-1.39 2.677-2.039 2.379-3.392.484-4.686-.611-4.334-2.624-5.277-1.566-2.166-3.291-2.116-3.978-.808-2.511-.029-5.862.542"/><path d="M74.392 54.599l1.42 1.984 2.538 5.085.572 4.092-.429 4.365-2.191 3.092-2.522 1.911-2.465 1.336-2.801 1.143-3.039.551-6.019-.011-3.496-1.054-3.939-3.216-1.51-2.256-.789-2.231m18.653-23.73l.02.003.019.003.019.003.019.003.018.003.019.003.018.003.018.003.018.003.018.003.017.003.016.003.016.003.016.002.015.003.015.003.014.003.013.002.013.003.012.002.012.003.011.002.01.002.009.002.009.002.007.002.007.002.007.002.005.001.005.002.003.001h.001l.002.001.002.002.001.001h.001l-.001.001-.001.001h-.002l-.003.001h-.004-.005-.006-.006-.007l-.008-.001h-.009l-.009-.001-.01-.001-.011-.001-.012-.001-.012-.001-.013-.002-.014-.001-.014-.002-.014-.001-.016-.002-.015-.002-.017-.002-.016-.002-.017-.002-.018-.002-.017-.003-.019-.002-.018-.003-.018-.002-.019-.003-.019-.003-.019-.002-.019-.003-.019-.003-.02-.003-.019-.003-.019-.003-.019-.003-.019-.003-.018-.003-.019-.003-.018-.003-.018-.003-.017-.003-.017-.002-.017-.003-.016-.003-.016-.003-.016-.003-.015-.003-.014-.002-.014-.003-.013-.003-.012-.002-.012-.002-.011-.003-.011-.002-.01-.002-.009-.002-.008-.002-.007-.002-.007-.002-.006-.002-.005-.001-.004-.002-.003-.001-.003-.001-.001-.001-.001-.001v-.001l.001-.001h.001l.003-.001h.003.005.005.006.006.008l.008.001.009.001h.01l.011.001.011.001.012.001.013.002.013.001.014.002.014.001.015.002.015.002.016.002.017.002.017.002.017.002.018.002.018.003.018.002.018.003.019.002.019.003.019.003.019.003.019.002.019.003m.425.082l.623-4.164 1.025-2.55m22.412 17.61l.011-.001h.001l.014-.001h.004l.011-.001.006-.001h.009l.009-.001.006-.001.012-.001h.004l.016-.001h.001l.019-.002h.003l.018-.002h.007l.02-.002.012-.001.023-.002.019-.001.012-.001.019-.002.031-.002.05-.004.056-.005.242-.02 1.198-.098.556-.046 2.1-1.207.001-.001 5.476-5.217 4.298-6.37.001-.002 2.463-5.383.461-2.608.01-3.637v-.001l-.41-2.611-.904-2.437-.707-1.517-2.373-2.736-3.405-2.291-3.533-1.406-.001-.001-4.241-.392-4.503.821-.002.001-2.323.924-2.763 1.75-5.261 4.654-.002.001-6.856 7.279-.102.108-1.54 2.061-1.464 2.415-.847 2.114m1.626-1.725l1.406-2.315 1.485-1.989 6.897-7.321 5.178-4.583 2.636-1.67m-.001 0l2.167-.862 4.301-.788"/><path d="M94.517 19.5l3.999.369 3.331 1.33 3.234 2.174 2.22 2.557.634 1.38.512 1.373m0 0l.354.95.201 1.283m0 0l.184 1.174-.01 3.493"/><path d="M109.176 35.582v.001h0l-.425 2.426"/><path d="M108.751 38.009h0l-2.391 5.215-4.203 6.233"/><path d="M102.158 49.457h-.001l-5.331 5.081-1.901 1.096-2.955 1.101m.369-.043l.019-.002.019-.002.02-.002.019-.003"/><path d="M95.085 55.942l-2.746.75m2.739-.768l-2.758.77"/><path d="M92.32 56.694l.019-.002 6.718.238m-3.986-1.023l-2.77.789"/><path d="M92.301 56.696l.019-.002 6.735.254m-3.992-1.058l-2.781.808"/><path d="M92.282 56.698l.019-.002 6.752.271m-3.997-1.093l-2.792.826"/><path d="M92.264 56.7l.018-.002 6.769.287m-4.002-1.128l-2.803.845"/><path d="M92.246 56.702l.018-.002 6.784.303m-7.078-.268h0 .002l.002-.001h.002l.004-.001h.005l.005-.001.006-.001.007-.001.008-.001.009-.001.009-.001.01-.001.011-.001.012-.002.012-.001.013-.002.013-.001.015-.002.014-.002.015-.001.016-.002.017-.002.016-.002.017-.002.018-.002.018-.002 6.8.318"/><path d="M93.354 56.837l-1.306-.096-.077-.006h-.001.001l.077.006m.649-.088l.014-.001.014-.002.012-.001.012-.001.012-.001.01-.001.01-.001.009-.001.009-.001.008-.001h.006l.006-.001h.006l.004-.001h.008"/><path d="M92.683 56.655l2.532-.372-2.518.37"/><path d="M92.697 56.653l2.522-.355m-2.551.358l2.542-.387-2.527.386"/><path d="M92.683 56.655l.014-.002"/><path d="M92.652 56.658l2.553-.404-2.537.402"/><path d="M92.668 56.656l.015-.001"/><path d="M92.636 56.66l2.564-.422-2.548.42"/><path d="M92.652 56.658l.016-.002"/><path d="M92.619 56.662l2.575-.439-2.558.437"/><path d="M92.636 56.66l.016-.002"/><path d="M92.602 56.663l2.586-.457-2.569.456"/><path d="M92.619 56.662l.017-.002"/><path d="M92.585 56.665l2.597-.475-2.58.473"/><path d="M92.602 56.663l.017-.001"/><path d="M92.567 56.667l2.609-.494-2.591.492"/><path d="M92.585 56.665l.017-.002"/><path d="M92.549 56.669l2.621-.513-2.603.511"/><path d="M92.567 56.667l.018-.002"/><path d="M92.53 56.671l2.633-.533-2.614.531"/><path d="M92.549 56.669l.018-.002"/><path d="M92.512 56.673l2.645-.552-2.627.55"/><path d="M92.53 56.671l.019-.002"/><path d="M92.512 56.673l.018-.002"/><path d="M92.493 56.675l2.657-.572"/><path d="M92.493 56.675l.019-.002 6.562.065-6.544-.067 6.545.048-6.526-.05 6.528.031-6.51-.033 6.511.015-6.493-.017 6.494-.001-6.477-.001 6.478-.017-6.461.016 6.461-.034-6.444.032 6.445-.049-6.429.047 6.43-.064-6.414.062 6.414-.078-6.399.077 6.4-.093-6.386.091 6.386-.106m-6.628.132l.019-.002.019-.002 6.58.082m-7.103-.022h.002l.496.037.046.003.84.062 5.637.418 5.436.826.969.208"/><path d="M86.695 83.933l1.137-.245 6.175 1.684.002.001 6.988.52 3.076-.065 8.99-1.041h.003l2.27-.594 3.378-1.748.001-.001 1.566-2.001.656-2.303.152-4.358-.428-3.055-1.124-3.81-.001-.002-3.742-4.944-.002-.001-2.881-2.069-4.812-1.918-3.511-.758h-.001l-5.52-.838-4.437.18"/><path d="M99.069 56.387l-5.726.232"/><path d="M99.071 56.389l-5.098.205-.243.01-.387.015-.354.015"/><path d="M99.072 56.391l-5.672.226-.058.003-.054.002-.161.006-.138.006-.115.004h-.001 0-.001-.001-.001-.001v.001h0-.001-.001 0-.001-.001-.001-.001-.001-.001 0-.003 0-.001 0-.001-.003 0-.004 0-.004 0l-.008.001m12.559 1.649l2.446.527 4.646 1.847.001.001m2.69 1.928l3.571 4.712.696 2.384m0 0l.355 1.219.41 2.918-.143 4.177-.573 2.046m0 0h0l-1.346 1.725-3.133 1.606m0 0h0l-2.12.551-4.653.538m0 0l-4.235.49-2.991.063"/><path d="M101.017 85.021h0 0l-6.865-.508-.072-.019m0 0l-6.237-1.678h-.002l-1.686.431-.53.979h0l.056 1.077 1.678 4.961 1.437 6.65"/><path d="M86.155 83.247h0 .001l.001.002.002.002.003.003.003.003.004.005.004.004m.495.628l.005.007.004.006.004.005.004.005.003.004.002.004.002.003.001.002.001.002.001.001m-.142 1.251l-.017-.048-.057-.73.05-.11"/><path d="M86.478 84.407l.051-.111.166-.363m-32.073 6.91l.254 4.259v.001l1.528 6.099 1.962 4.339 1.961 2.336.001.001 2.274 1.93 5.308 2.643 2.726.563 5.281.082h.001l3.515-.696 5.422-2.591h0l2.997-2.876 1.383-3.069v-.002l.462-3.925-.035-3.117-1.462-6.785-1.647-4.851"/><path d="M88.795 96.913l.031 2.973-.432 3.739-1.255 2.8m0-.001l-2.781 2.662-5.202 2.481-3.319.656-5.109-.081-2.536-.52-5.113-2.546m0 0h0l-2.136-1.818-1.841-2.185"/><path d="M59.102 105.074v-.001l-1.13-2.506m0 0l-.746-1.655-1.489-5.944-.004-.067m0 0l-.253-4.209-.384-1.252v-.001l-.872-.65-.073.036m-.007.832v.001l.224.261.254.925"/><path d="M54.224 88.789h0l-.001.001v.002l-.001.003v.003l-.001.005-.001.005-.001.006v.007l-.001.008-.001.008-.002.009-.001.01-.001.011-.001.011-.002.013-.001.012-.001.014-.002.014-.001.014-.002.016m-.048.523l-.001.016-.001.014-.002.014-.001.014-.001.013-.001.012v.011l-.001.011-.001.01v.01l-.001.008v.008l-.001.007v.006.005.005l-.001.004v.002l.001.002v.001"/><path d="M54.224 88.789l-.073.036-1.2.599-4.332 5.063-4.39 4.189-3.776 2.875m13.05-11.452v-.001h0l.155-.106"/><path d="M13.008 93.408l.06 1.964.051 1.649.794 1.983.852 1.093 3.426 2.392 6.2 2.256h.001l6.019.491 5.664-.802h.002l4.816-2.13 3.899-2.963 4.457-4.253.001-.001 4.253-4.989"/><path d="M40.453 101.551l-4.611 2.041-5.45.769m0 0l-5.806-.471-5.985-2.178-3.229-2.252m-.697-.896h0l-.698-1.729-.095-3.373.444-2.517m21.357-17.846l-8.925 4.51-.117.059-4.198 2.794-.002.001-6.945 6.686-1.994 3.504-.001.002-.493 2.751.06 1.966"/><path d="M14.326 90.945h0l1.862-3.265"/><path d="M16.187 87.681l.001-.001 6.802-6.54 4.092-2.721M19.185 66.25h.001 0l5.312 2.555 6.37 2.127 6.025 1.438h0l-.102 1.038v.002h-.001-.002-.002l-.003-.001-.004-.001-.005-.002-.005-.003-.005-.003-.007-.003-.007-.004-.008-.004-.008-.005-.009-.005-.009-.006-.01-.006-.011-.007"/><path d="M27.081 78.419h.001 0l.046-.024m9.009-5.523l-.049.023-.405.204m1.21-.729h-.001l-.002.001-.003.001-.003.002-.004.002-.004.003-.005.003-.006.004-.007.004-.007.005-.008.005-.008.005-.01.006-.009.006-.01.007-.011.007-.012.007-.011.008-.013.008-.012.008-.014.009-.013.009-.014.009-.014.009-.015.01m-.507.349h.001"/><path d="M36.174 72.853l.002-.002"/><path d="M36.18 72.848l-.008.005-.003.003-.002.001h-.001v.001l-.001.001h-.001l-.001.001h0l-.001.001h-.001 0l-.001.001h0l-.001.001h-.001l-.003.002-.001.001-.042.029-.018.013m.271-.189l-.014.009-.014.01-.014.009-.013.009-.012.009-.012.008-.012.008-.011.008-.011.007-.01.007-.009.007-.009.006-.008.006-.008.005-.007.005-.006.005-.006.004-.005.004-.004.003"/><path d="M42.89 41.657l-.001-.001v-.002l-.002-.004-.001-.003v-.003l-.002-.005h0l-.002-.006v-.001l-.001-.003-.002-.005-.002-.01-.005-.014-.003-.011-.001-.001-4.051-5.138-1.779-1.476-2.076-1.073-.002-.001-2.851-.574-3.094-.128-1.998.078-.001.001-3.122.795-3.688 2.708-4.811 5.871-.001.001-3.179 6.116-.654 2.825-.143 2.633h0l.516 4.705.683 2.23 1.67 2.745 1.278 1.134.001.001 3.198 1.973 5.404 2.598 6.466 2.159 5.533 1.086"/><path d="M17.862 65.435l-1.772-1.092-1.129-.994-1.543-2.542m.001.001l-.625-2.051-.252-2.294m0 0l-.247-2.259.135-2.487.608-2.646 3.09-5.939 4.683-5.719 3.461-2.552"/><path d="M24.271 34.861h.001l1.466-.368 1.408-.353 1.872-.069 2.991.122"/><path d="M32.008 34.192l.001.001 2.665.53 1.884.977"/><path d="M36.557 35.699l.001.001 1.637 1.36.058.071m5.329-.094l-.073 5.252-1.016.084h-.002l-.001-.001v-.001l-.001-.003v-.003l.001-.004.001-.004.001-.005.002-.007.002-.006.002-.008.003-.008.003-.009.003-.01.004-.01.004-.011"/><path d="M43.509 42.289h0l-.001-.001-.002-.001-.001-.002-.003-.003-.003-.003-.004-.004-.004-.004-.005-.005-.006-.006-.006-.006-.006-.006-.007-.008-.008-.007-.008-.009-.009-.008-.009-.009-.009-.01-.01-.01-.011-.01-.01-.011-.012-.012-.011-.011-.012-.012-.012-.012-.012-.013-.013-.012m-.423-.433l-.001-.002-.001-.003-.001-.003-.001-.004v-.001l-.002-.003v-.001-.001l-.002-.007-.002-.007-.003-.007-.007-.022v-.001l-.001-.001-.002-.007.002.006.001.002"/><path d="M42.893 41.671h0"/><path d="M42.916 41.694l-.002-.003-.003-.003-.001-.001-.003-.004h0l-.001-.001-.003-.003h0l-.001-.001-.002-.003h0-.001v-.001h-.001l-.001-.002h0l-.001-.001h0l-.001-.001-.001-.001h0 0l-.001-.001v-.001h0 0 0l-.001-.001h0-.001v-.001h0l-.047-.053m.218.228l-.012-.012-.012-.012-.011-.012-.012-.011-.01-.011-.011-.01-.01-.01-.009-.01-.009-.009-.009-.008-.008-.009-.008-.007-.007-.007-.006-.007-.007-.006-.005-.005m.593.595l.175-12.535m25.138 10.999l.008-1.655.915-5.181.12-7.759-.042-2.712v-.001l-1.108-3.663-.001-.002-1.708-2.058-2.299-1.2-5.402-.575-4.693.413-2.75.758-2.515 1.312-3.89 3.551-1.422 2.206v.001l-.93 2.65-.29 2.822.065 10 .013 1.996h0v.001.001.001h0v.001h0v.001h0v.002m.791-11.909l.001-.045.27-2.678m0 .001l.863-2.457 1.304-2.027 3.724-3.399m0 0l2.335-1.215 2.586-.711 2.216-.196m0 0l2.316-.204 5.157.538 2.004 1.044m0 0h0l1.488 1.793"/><path d="M67.948 20.197v.001l1.015 3.383.007.56.007.592m0 0l.017 1.426-.079 5.254m-.037 2.421v.001l-.916 5.185v.001l-.028 5.583"/><path d="M68.089 44.619h-.002l-.014-.001-.014-.001h-.013l-.013-.001-.012-.001h-.011l-.011-.001-.01-.001-.009-.001h-.008l-.008-.001-.006-.001-.006-.001-.005-.001-.005-.001h-.003l-.003-.001-.001-.001-.001-.001v-.001l.001-.001h.002l.002-.001.004-.001.004-.001.005-.001h.006l.007-.001.008-.001.008-.001h.009l.01-.001.011-.001h.011l.012-.001.013-.001h.013l.014-.001h.015.004l.011-.001h.016.016l.016-.001h.018.017l.018-.001h.018.018.019.019.019.019.02.019.019.02.058M60.68 61.144v.001.002.004.005.007.008l.001.009v.011l.001.012v.013l.001.015.001.016.001.017.001.018.001.019v.013l.001.008.001.022.001.022.001.024.001.024.002.026.001.026.002.027.001.028.002.028.001.029.002.03.001.026v.004l.002.03.002.031.001.026v.001.003.001.002l.002.03v.004.002l.001.01.001.016.001.028.001.002v.001.001.007.001.003.002l.001.018.002.032v.002l.001.017v.001.001l.001.006v.005l.002.032.001.031.001.009V62"/><path d="M61.517 62.801l.298-.028.15-.896-.277-.482-.451-.253-.557.002"/><path d="M61.551 62.541l.02.018.008.007.012.011.019.016.018.017.018.015.017.015.017.015.015.013.015.013.002.002.004.004.008.006.012.012.012.01.012.01.01.009.009.008.008.007.007.006.006.006.005.004.004.003.003.003.002.002h.001m-.662-.392l-.011.025-.019.025m-.54.438l.521.169.413-.237"/><path d="M61.097 63.002l.002.009.001.008.002.007v.005l.001.004.001.002v.001m-.417-1.724l-.577.568.03.195"/><path d="M60.221 61.925l-.016-.006-.015-.006-.013-.005-.013-.005-.011-.004-.01-.004-.008-.004-.008-.002-.006-.003-.005-.002-.003-.001-.002-.001h-.001m-.108.188l.222.746.359.053"/><path d="M60.405 62.616l-.016.018-.016.017-.016.017-.014.016-.014.015-.013.015-.012.013-.012.013-.01.011-.01.011-.004.005-.005.005-.008.009-.007.008-.006.007-.005.006-.005.005-.003.004-.005.005m.522-.706l-.01-.001h-.005-.009l-.008-.001-.032-.002-.032-.001-.011-.001-.021-.001-.031-.002-.031-.001-.031-.002-.031-.002-.03-.001-.029-.002-.014-.001h-.015l-.029-.002-.028-.001-.026-.002-.027-.001-.025-.002-.024-.001-.024-.001-.023-.001-.021-.002-.02-.001-.019-.001h-.001l-.018-.001-.017-.001h-.016l-.014-.001-.013-.001-.012-.001h-.011l-.009-.001h-.008-.007l-.005-.001h-.007m8.553-.981l.005.001.004.001.002.001.004.001.004.001.006.001h.001l.006.002h0 0l.006.002.013.003h.001l.003.001h.002l.02.005.004.001.007.002m-.123.005l.004.003.008.004m.418.735l.468-.153.279-.758-.067-.452-.606-.519-.603.066-.36.238-.341.414v.001l-.17.591.355.702h0l.765.073.28-.203"/><path d="M68.011 61.838l-.012.018-.011.016-.01.015-.01.014-.01.014-.008.012-.008.011-.007.01-.007.009-.005.008-.005.007-.004.005-.004.005-.002.003-.003.003m1.117-1.994l.001-.006.001-.005v-.007m.331 1.65l.011.012.009.011.008.01.008.009.006.009.006.007.005.006.004.005.003.004.002.003.001.002v.001m-.557-.601v.018l.001.014v.009.022.001.005l.001.004v.023l.001.03v.002.032l.001.017v.013.001.031.005l.001.009v.01.006h0v.001.031l.001.03v.006.024.029l.001.029v.027.027l.001.027v.015.01.071M57.02 68.248l-.016.011-.016.011-.016.011-.016.011-.016.01-.016.011-.015.01-.015.01-.015.01-.015.01-.014.01-.014.009-.014.009-.013.009-.013.009-.012.008-.012.008-.012.007-.01.007-.011.007-.009.007-.01.006-.008.005-.008.005-.007.005-.007.005-.006.003-.005.004-.004.003-.004.002-.003.002-.003.002-.002.001h0-.001v.001l.001-.001.001-.001.002-.001.002-.002.004-.002.004-.003.004-.003.006-.004.006-.004.007-.005.007-.005.008-.005.009-.006.009-.007.01-.006.01-.007.011-.008.012-.007.012-.009.012-.008.013-.009.013-.009.014-.009.014-.009.014-.01.015-.01.015-.01.015-.01.016-.011.016-.01.015-.011.016-.011.017-.011.016-.011.016-.01.016-.011.016-.011.016-.011.016-.011.016-.01.016-.011.016-.01.015-.011.015-.01.015-.01.014-.009.015-.01.013-.009.014-.009.013-.009.012-.008.013-.008.011-.008.011-.007.011-.007.01-.007.009-.006.009-.006.008-.005.008-.005.007-.005.006-.004.006-.004.005-.003.004-.003.003-.002.003-.002.002-.001.002-.001h0 0l-.001.001-.001.001-.002.001-.003.002-.004.003-.004.003-.005.003-.006.004-.006.005-.007.005-.008.005-.008.005-.009.007-.01.006-.01.007-.011.007-.011.008-.012.008-.012.008-.013.008-.013.009-.013.009-.014.01-.014.009-.015.01-.015.01-.015.011-.015.01-.016.01-.016.011-.016.011-.016.011-.016.011-.016.01-.017.011"/><path d="M56.662 68.487l.192.284.013.025m1.261.501l-.523-.978-.215-.321m3.105 3.107l-.455-.18-.874-.53-.392-.32-.293-.308-.329-.425-.024-.045m-1.261-.501l.549 1.022.399.52.363.381.483.393.988.599.795.316.64.194 2.149.456 1.076.064 2.136-.028.576-.102.657-.18 1.038-.368 2.075-1.003.393-.259.582-.476.41-.443.284-.397.368-.734.604-1.703.172-.901.004-.218"/><path d="M61.025 71.288l-.292-.089-.238-.094m3.444.737l-.588-.034-2.048-.436-.278-.084m4.069.567l-.765.01-.39-.023m8.792-5.919v.138l-.146.757-.564 1.59-.312.624-.213.296-.33.358-.502.408-.306.203-1.98.956-.963.341-.587.161-.466.084-.734.01-.534.006M73.2 65.93h-.02l-.019-.001h-.02-.019-.02-.019-.019l-.019-.001h-.019-.018-.018-.018-.017l-.017-.001h-.016-.016-.015-.015l-.014-.001h-.014-.013-.012-.012l-.011-.001h-.01-.01-.008l-.008-.001h-.007-.006-.006-.004-.004l-.002-.001h-.001-.002-.001 0 0 .002l.002-.001h.003.004.005.006.006.008.008.009.01l.01-.001h.011.012.013.013.014.014.015.016.016.016.017.018.018l.018.001h.018.019.019.019.019.02.019.02l.019.001h.02.019.019.019.019.019l.019.001h.018.017.018.017l.017.001h.016.015.016.014l.014.001h.013.013.012.011l.011.001h.01.009.008.008l.006.001h.006.005.004.004l.002.001h.002.001-.001-.001-.001l-.003.001h-.004-.004-.006-.006-.007-.007-.009-.009-.01-.011l-.012.001h-.012-.013-.013-.014-.015-.015-.016-.017-.016l-.018-.001h-.017-.018-.019-.018-.019-.019-.058M15.372 99.46l-.697-.896m3.187-33.129l1.324.815h0v.001l2.664 1.28 2.649 1.275 3.337 1.114 3.031 1.012.043.011"/><path d="M19.186 66.25l-1.324-.815m18.235 7.456h-.001l.007-.003-.001.001h0-.001l-.001.001.001-.001v.001H36.1v.001h0m0 .008h0l-.008.006-.234.117-.002.001-.112.053h0l-.017.005h.001l-.014.005.001-.001-.014.006h0l-.018.008"/><path d="M36.1 72.891h0l.001.001h0 0 0 0 0l.001.002v.001"/><path d="M36.102 72.895h0v-.001"/><path d="M36.102 72.894h0 0 0l-.002.005"/><path d="M36.148 72.867l-.011.005-.036.017-.004.002-.009.005"/><path d="M36.1 72.891h0-.001l-.012.006m.067-.033l-.006.003-.004.002-.006.003-.027.013-.001.001-.01.005m.07-.034h.001"/><path d="M36.159 72.861l-.005.003-.003.001-.002.002-.002.001-.003.001-.005.003h-.001l-.031.017h-.001l-.005.003h0l-.013.007m.071-.036l.011-.006h.001"/><path d="M36.102 72.894h0l-.003.002h0l-.009.005m.075-.043l-.006.003-.002.002-.002.001-.002.001h-.001 0l-.002.002-.002.001h0l-.007.004-.002.001-.035.02-.002.001"/><path d="M36.1 72.899l-.008.005"/><path d="M36.172 72.853l-.005.004-.002.001-.003.002-.002.001-.002.001v.001h-.001 0 0 0l-.003.002h0l-.003.002h0l-.009.006h-.001l-.033.021-.008.005m-8.972 5.496l9.662-4.985m1.463-36.279l4.237 5.241m.382-.773l-.001-.001v-.001l.001.002.001.005.001.001h-.001v-.001.001h0l-.001-.001"/><path d="M42.871 41.597l.001.002"/><path d="M42.872 41.604h0"/><path d="M42.872 41.604h0l-.006-.017-.191-.242h.001l-.007-.01h0l.004.006-.001-.001"/><path d="M42.872 41.604h0l-.005-.014v-.003m.019.063l-.001-.004-.001-.003-.001-.005-.002-.004-.002-.006-.001-.005-.004-.011-.002-.008"/><path d="M42.886 41.649v-.001l-.001-.003-.001-.003-.003-.007-.001-.004-.004-.011-.001-.004-.01-.028"/><path d="M42.872 41.599l.001.005.003.008.003.011.001.003.002.005v.001l.002.006v.001l.002.005v.003l.001.003.002.004v.002l.001.001"/><path d="M42.887 41.65h-.001v-.001h0l-.002-.005-.001-.003h0l-.004-.011-.002-.004-.007-.019-.004-.011-.003-.007"/><path d="M42.873 41.605l.006.017.001.004"/><path d="M42.888 41.654l-.001-.002v-.002h-.001 0 0l-.001-.004-.002-.004-.001-.002-.001-.002-.011-.026-.001-.002-.005-.011-.003-.008"/><path d="M42.876 41.612l-.003-.007m.02.056l-.001-.002-.001-.002-.001-.004h0v-.001l-.002-.006-.002-.006-.002-.006-.005-.012"/><path d="M42.881 41.631l.001.001"/><path d="M42.891 41.659l-.001-.002h0l-.001-.002-.001-.001-.001-.002h0 0v-.001h0l-.001-.002-.001-.002-.003-.004-.005-.011-.002-.005-.017-.034"/><path d="M42.893 41.658l-.001-.002-.002-.006-.002-.006-.004-.01"/><path d="M42.879 41.628l.005.01"/><path d="M42.895 41.666l-.001-.001-.001-.002-.001-.002h0l-.001-.002-.001-.001h0l-.001-.001-.001-.002v-.001h0-.001v-.002h0-.001v-.001l-.002-.003-.001-.002-.028-.049"/><path d="M42.893 41.656l-.001-.001-.004-.011"/><path d="M42.883 41.638l.003.006"/><path d="M42.9 41.674l-.002-.003h0l-.001-.001-.002-.003v-.001h0-.001l-.001-.003h-.001 0v-.001l-.001-.002h0-.001v-.001l-.001-.002h0-.001 0v-.001h0 0l-.001-.001-.035-.054"/><path d="M42.893 41.656l-.001-.001"/><path d="M42.885 41.646l.002.004"/><path d="M42.907 41.683h-.001l-.001-.002-.003-.004-.001-.001-.001-.002-.002-.002v-.001l-.001-.001-.002-.002h0v-.001l-.002-.002h0 0 0l-.001-.001h0v-.001h-.001 0 0v-.001h-.001 0v-.001h0 0l-.001-.001-.007-.01-.034-.044"/><path d="M42.889 41.655v.001m.795-11.902h0 0 0v-.001m9.819 60.345h.001 0l.154-.106m0 0l.063-.044h0l.022-.017h.001l.04-.029V89.9l.031-.023.001-.002.082-.058.001-.003.057-.04.001-.004.031-.022.001-.005.018-.014.002-.006.014-.011.001-.007.011-.009.003-.007.005-.005.002-.009-.001-.001.002-.009-.001-.001.003-.01-.002-.001.003-.011-.001-.001.003-.011-.001-.002.004-.012-.002-.001.004-.013-.001-.001.004-.014-.001-.002.004-.014-.001-.001.004-.015-.001-.002.005-.015-.001-.002.005-.016-.001-.002.005-.016-.001-.002.006-.018-.001-.001.079-.054.141.138-.006.002.005.016-.005.004.004.014-.007.002.004.015-.004.003.003.013-.006.003.003.012-.006.002.002.011-.005.002.002.011-.006.002.002.01-.005.002.002.009-.006.002.002.008h-.006l.001.008h-.007l.001.007h-.005l.001.007.001.006.001.007.01.016.001.005.011.019.001.004.014.021.001.003.013.021v.002l.07.082.073.274.083.312-.001.003.002.016v.001l.007.032-.001.001.079.291.002.04h0l-.002-.001h0v-.001h0l.001-.002h0l.001-.001"/><path d="M53.658 89.992l.486-.334m2.519-21.172h0m1.309 34.081l.318.704m2.205-32.166l.238.095.292.088m-.075-9.2l-.005-.005.004-.005.004-.004m.224.251l-.002.006-.001.002-.007.027-.002.007-.002.008-.002.006m.029-.1l-.003.023v.002l-.001.003v.001l-.003.026v.001l-.002.019m2.758 9.486l.39.023.765-.01m3.436-10.733l.002.003v-.008"/><path d="M68.532 61.117l.001.007"/><path d="M68.533 61.124l.011-.006.018-.009.001-.008.001-.01m-.471-16.501l-.004.029-.15.994"/><path d="M68.58 61.105l.004.014-.048.004h-.001l-.006-.003m.256-.238v-.001"/><path d="M68.782 60.884l.003-.002.007-.005-.002.005-.002.006-.005.013m.036-20.141l.008-1.665.007-.032h0l.001.001h0v.001h0v.002-.001l-.002.001h0l-.006.034-.008 1.658m.096-9.346l.005-.385v-.002l-.003.264h0l-.003.246.001.003m0-.126l-.037 2.422m3.857 32.088v-.001m13.818 19.262v.001l-.001.001h.001l-.018-.048-.021-.269h-.001l-.004-.038h-.001l-.003-.025-.002-.002-.016-.191-.017-.205.087-.19-.001-.002.012-.031v-.003l.009-.026-.001-.004.005-.017.102-.22.23-.047.075-.015.005.002.157-.032.004.002.683-.146.105.03h0l-.001.003h0v.003h-.001l-.001.001h0l-.001.001h0l-.001-.001h0l-.001-.001h0l-.001-.002h0l-.002-.003h.001l-.002-.004h0l-.002-.005"/><path d="M86.563 84.222l.002-.006m1.481 9.23l-.686-3.181-.005-.014h0l.006.015.825 3.819.611 2.831.021 2.017.009.957-.203 1.77-.001.009-.05.449-.175 1.514-.659 1.471-.596 1.329-1.575 1.506-1.207 1.156-2.835 1.351-2.368 1.127-1.846.365-1.473.291-3.003-.048m20.022-55.541h0"/><path d="M92.858 56.639h0"/><path d="M92.859 56.639h0 0 0-.001"/><path d="M92.859 56.638h.001-.001v.001"/><path d="M92.86 56.638h0"/><path d="M92.86 56.638h0-.001"/><path d="M92.868 56.639h.001v-.001.001h0l.001-.001h.001 0 0 0 0 .001 0 0 .001l-.001.001h0 0-.001.002 0 0 0 .003.001.003 0 .005l-.034.001h0l-.001.001h-.001-.001 0 0-.001 0-.001-.001 0-.001-.001-.001-.002 0-.001 0-.004 0-.005 0 0l-.02.001.064-.006h-.003.001l-.003.001h0-.002 0-.001.001.003-.002 0-.001-.001l-.001.001h-.001-.002 0-.002"/><path d="M92.874 56.638h.007"/><path d="M92.873 56.638h.008l.022-.002"/><path d="M92.872 56.638h.007l.012-.001.012-.001.023-.003"/><path d="M92.869 56.639l.001-.001h.002.004l.013-.001.013-.001.012-.001.012-.002.027-.002"/><path d="M92.866 56.639l.005-.001h.003l.005-.001h.003.003.003.002l.008-.001.014-.001.013-.001.013-.002.015-.001.029-.002"/><path d="M92.862 56.639h.002l.008-.001.007-.001h.004l.01-.001h0 .002l.006-.001h.006 0 .001l.013-.001.015-.001.014-.002.016-.001.016-.001.042-.004"/><path d="M92.858 56.639l.01-.001h.003l.009-.001h.006l.006-.001.009-.001h.002l.01-.001h.002.001.006l.006-.001h.001.002l.016-.001.016-.002.018-.001.019-.002.024-.002.067-.006"/><path d="M92.858 56.639h0"/><path d="M92.853 56.639h.006.002l.001-.001.012-.001h.004l.009-.001h.006l.007-.001h.009l.003-.001.012-.001h.001l.011-.001h.005.001l.004-.001h.008.003l.001-.001.019-.001.02-.002.024-.002.031-.002.039-.004.164-.013"/><path d="M92.859 56.638h0 .007.001l.013-.001.004-.001h.01l.006-.001.008-.001h.009l.005-.001.012-.001h.002l.013-.001h.003l.012-.001.007-.001h.007l.014-.001h0l.003-.001h.008l.015-.002.03-.002.041-.003.061-.005.105-.009 1.438-.118"/><path d="M92.849 56.639l.01-.001m8.157 28.383h0"/><path d="M101.016 85.021h.001l1.714-.036 1.278-.027 4.234-.49m-2.847-26.179l-.968-.208-.701-.107m4.72-29.291l-.066-.179-.001-.002-.085-.232v-.001l-.093-.253.001-.001.086.226h.001l.074.19.002.001m.636 2.484l-.024-.155-.177-1.128-.354-.95m4.041 31.98l2.691 1.929"/></svg>