<?xml version="1.0" encoding="UTF-8" standalone="no"?>
<svg
   version="1.1"
   width="250"
   height="250"
   id="svg6"
   xmlns="http://www.w3.org/2000/svg"
   xmlns:svg="http://www.w3.org/2000/svg">
  <defs
     id="defs6" />
  <g
     id="ViewLayer_LineSet"
     transform="matrix(1,0,0,-1,0,250)">
    <g
       id="strokes"
       style="display:none">
      <path
         fill="none"
         stroke-width="3"
         stroke-linecap="butt"
         stroke-opacity="1"
         stroke="#000000"
         stroke-linejoin="round"
         d="m 72.907272,227.45211 1.152,0.335 1.309,-0.035 1.444,-0.404 1.555,-0.767 1.638,-1.115 1.694,-1.446 7.867,-6.173 7.868,-6.173 7.866998,-6.173 7.868,-6.172 7.867,-6.173 7.867,-6.173 7.868,-6.173 7.867,-6.173 7.868,-6.172 7.867,-6.173 7.868,-6.173 7.867,-6.173 7.867,-6.173 7.868,-6.172 3.64,-2.856 1.446,-1.257"
         id="path1" />
      <path
         fill="none"
         stroke-width="3"
         stroke-linecap="butt"
         stroke-opacity="1"
         stroke="#000000"
         stroke-linejoin="round"
         d="m 73.391548,227.77587 0.333471,-0.6319 -1.037718,-0.66461 -0.856852,-1.00817 -0.655639,-1.35991 -0.429557,-1.72391 -0.174083,-2.06541 0.09495,-2.32002 -0.35721,0.53476 -0.103998,2.27503 0.151475,2.02247 0.402427,1.73414 0.648857,1.41716 0.882851,1.07463 1.101022,0.71574"
         id="path2" />
      <path
         fill="none"
         stroke-width="3"
         stroke-linecap="butt"
         stroke-opacity="1"
         stroke="#000000"
         stroke-linejoin="round"
         d="m 200.25227,127.37511 0.143,-1.668 -0.143,-1.668 -0.429,-1.64 -0.705,-1.583 -0.97,-1.5 -1.219,-1.39 -1.446,-1.257 -7.868,-6.173 -7.867,-6.172 -7.868,-6.173003 -7.867,-6.173 -7.868,-6.173 -7.867,-6.173 -7.867,-6.172 -7.868,-6.173 -7.867,-6.173 -7.868,-6.173 -7.867,-6.173 -7.868,-6.172 -7.866998,-6.173 -7.867,-6.173 -3.64,-2.856 -1.694,-1.446 -1.638,-1.115 -1.555,-0.767 -1.444,-0.404 -1.309,-0.035 -1.152,0.336 -0.974,0.699 -0.781,1.051 -0.574,1.386"
         id="path3" />
      <path
         fill="none"
         stroke-width="3"
         stroke-linecap="butt"
         stroke-opacity="1"
         stroke="#000000"
         stroke-linejoin="round"
         d="m 196.81327,133.37211 0.116,0.116 1.219,-1.39 0.97,-1.5 0.705,-1.583 0.429,-1.64 -0.18,-0.095 -0.392,1.57 -0.668,1.558 -0.957,1.522 -1.242,1.442"
         id="path4" />
      <path
         fill="none"
         stroke-width="3"
         stroke-linecap="butt"
         stroke-opacity="1"
         stroke="#000000"
         stroke-linejoin="round"
         d="m 70.088272,30.773107 0.092,2.225 v 10 10 10 10 10 10 10.000003 10 10 10 10 10 10 10 10 10 10 10 5.418"
         id="path5" />
      <path
         fill="none"
         stroke-width="3"
         stroke-linecap="butt"
         stroke-opacity="1"
         stroke="#000000"
         stroke-linejoin="round"
         d="m 70.088272,30.773107 0.328,0.506 0.153,-2.02 0.38,-1.701 -0.371,-0.459 -0.356,1.696 -0.134,1.978"
         id="path6" />
    </g>
    <path
       style="display:none;fill:#ffffff;stroke-width:0.306401"
       d="m 54.487193,13.323256 c -1.052573,0.419625 -1.331102,1.11111 -1.940836,4.818292 -0.498206,3.029097 -0.548601,12.75732 -0.547362,105.662352 8.08e-4,60.58265 0.125885,102.43383 0.306589,102.59023 0.167874,0.14525 0.365308,1.64031 0.438743,3.32235 0.107259,2.45664 0.278197,3.28609 0.868997,4.21642 0.769957,1.21247 2.325171,2.3171 3.262272,2.3171 1.081695,0 3.807474,-1.37279 7.288813,-3.67091 1.945836,-1.28449 37.404261,-24.22319 78.796511,-50.97488 41.39224,-26.75171 75.44197,-48.76458 75.66608,-48.91749 1.35211,-0.9226 3.6234,-4.00194 4.2697,-5.78872 1.1366,-3.14227 0.30246,-5.97406 -2.57505,-8.7419 -0.66605,-0.64067 -6.4703,-4.56372 -12.89835,-8.71791 C 188.91464,97.476804 141.18211,66.644565 100.96338,40.671704 80.626843,27.538579 63.323732,16.316934 62.512023,15.734733 c -1.797673,-1.289401 -5.237235,-2.743412 -6.429067,-2.71778 -0.48107,0.01002 -1.199164,0.148186 -1.595763,0.306303 z"
       id="path7" />
    <rect
       style="display:inline;fill:#ffffff;stroke-width:4.98121"
       id="rect9"
       width="35.735016"
       height="223.55"
       x="65.5"
       y="-235.25"
       transform="scale(1,-1)" />
    <rect
       style="display:inline;fill:#ffffff;stroke-width:4.98121"
       id="rect9-2"
       width="35.735016"
       height="223.55"
       x="147.76498"
       y="-234.75"
       transform="scale(1,-1)" />
  </g>
</svg>
